<?xml version="1.0" encoding="UTF-8"?>
<svg version="1.1" xmlns="http://www.w3.org/2000/svg" width="512" height="512">
<path d="M0 0 C168.96 0 337.92 0 512 0 C512 168.96 512 337.92 512 512 C343.04 512 174.08 512 0 512 C0 343.04 0 174.08 0 0 Z " fill="#000000" transform="translate(0,0)"/>
<path d="M0 0 C1.02931641 -0.01611328 2.05863281 -0.03222656 3.11914062 -0.04882812 C21.32568273 -0.06034396 36.59089703 8.77805132 49.1875 21.3125 C50.51151864 22.44844781 51.84420836 23.57440955 53.1875 24.6875 C57.666327 28.57773372 61.60596574 32.9607418 65.5546875 37.375 C67.16116457 39.16738984 68.78692074 40.94303255 70.4453125 42.6875 C71.08210938 43.368125 71.71890625 44.04875 72.375 44.75 C72.92542969 45.32621094 73.47585938 45.90242188 74.04296875 46.49609375 C75.57261427 48.92368817 75.54592956 50.49497144 75.1875 53.3125 C73.0625 55.6875 73.0625 55.6875 70.1875 57.3125 C64.62074818 56.9766477 59.79260181 54.63747796 54.75 52.4375 C53.51926758 51.90962891 53.51926758 51.90962891 52.26367188 51.37109375 C48.6908814 49.83704644 45.13063235 48.28669036 41.58984375 46.6796875 C35.04036619 44.04786529 28.98322164 42.94377763 21.9375 43 C21.20023682 43.00491455 20.46297363 43.0098291 19.70336914 43.01489258 C7.01719183 43.28375516 -3.27510261 46.93333483 -12.140625 56.14453125 C-16.83579788 62.23289796 -20.9631534 70.08919167 -20.9375 77.875 C-20.94007813 78.66003906 -20.94265625 79.44507813 -20.9453125 80.25390625 C-20.94226366 82.37688977 -20.94226366 82.37688977 -19.8125 84.3125 C-17.94501099 84.32651855 -17.94501099 84.32651855 -16.03979492 84.34082031 C-11.37456852 84.38100711 -6.70998186 84.44684299 -2.04516602 84.52001953 C-0.03483361 84.54806393 1.97560567 84.56935979 3.98608398 84.58349609 C18.47793079 84.69145621 29.66092276 85.66446705 41.875 94.0625 C42.49310547 94.47371094 43.11121094 94.88492188 43.74804688 95.30859375 C45.23471058 96.29970289 46.71219797 97.30455643 48.1875 98.3125 C48.5175 97.3225 48.8475 96.3325 49.1875 95.3125 C52.40431035 94.24022988 54.80023352 94.15312407 58.18432617 94.10375977 C59.41958542 94.08446915 60.65484467 94.06517853 61.92753601 94.04530334 C63.27850288 94.03049321 64.62948147 94.01672025 65.98046875 94.00390625 C67.00394126 93.99404851 67.00394126 93.99404851 68.04808998 93.98399162 C71.66232861 93.95142222 75.27653815 93.92696968 78.89086914 93.9074707 C81.87177812 93.88968853 84.85173552 93.85491819 87.83227539 93.80493164 C91.44092631 93.74449212 95.04869829 93.7139632 98.65783119 93.70429802 C100.02732899 93.69577977 101.39680559 93.67705131 102.76601219 93.6475544 C110.39813533 93.49203424 115.88161829 93.55922573 121.71992493 98.82194519 C122.2042247 99.31382828 122.68852448 99.80571136 123.1875 100.3125 C123.950625 100.98796875 124.71375 101.6634375 125.5 102.359375 C126.056875 102.92140625 126.61375 103.4834375 127.1875 104.0625 C128.05375 104.92101562 128.05375 104.92101562 128.9375 105.796875 C130.1875 107.3125 130.1875 107.3125 130.1875 109.3125 C131.1775 109.6425 132.1675 109.9725 133.1875 110.3125 C134.72950745 111.87451172 134.72950745 111.87451172 136.37329102 113.8671875 C140.11902139 118.27812196 144.10981281 122.36225985 148.21484375 126.4375 C148.98490753 127.20610352 149.75497131 127.97470703 150.54837036 128.76660156 C152.20757108 130.42202005 153.86792521 132.07628314 155.52932739 133.72949219 C158.16380318 136.35111386 160.79506325 138.97592578 163.42553711 141.6015625 C169.01005171 147.17469223 174.59845721 152.74391232 180.1875 158.3125 C186.66799024 164.76927256 193.14677529 171.22774261 199.62136841 177.69042969 C202.20442943 180.26704318 204.790501 182.84060829 207.37670898 185.4140625 C208.97134047 187.00505894 210.56583031 188.59619737 212.16015625 190.1875 C212.87205109 190.89422852 213.58394592 191.60095703 214.31741333 192.32910156 C229.09276634 207.10290605 229.09276634 207.10290605 229.32226562 212.45581055 C228.31829497 217.95308963 223.90168169 221.3138873 220.03125 225.01953125 C219.21378296 225.82613693 218.39631592 226.63274261 217.55407715 227.46379089 C214.94568421 230.0320559 212.31750099 232.57888407 209.6875 235.125 C207.06195494 237.69319674 204.4405811 240.26556724 201.82092285 242.83976746 C200.19043923 244.43904627 198.55569318 246.03399293 196.91638184 247.6242218 C195.81018494 248.70125618 195.81018494 248.70125618 194.68164062 249.80004883 C194.02957642 250.4317952 193.37751221 251.06354156 192.70568848 251.71443176 C191.09511123 253.25409914 191.09511123 253.25409914 190.1875 255.3125 C189.5275 255.3125 188.8675 255.3125 188.1875 255.3125 C187.79832649 256.18670341 187.79832649 256.18670341 187.40129089 257.0785675 C186.09757991 259.47799425 184.67390836 261.10594091 182.7668457 263.05541992 C182.06884354 263.77263718 181.37084137 264.48985443 180.65168762 265.22880554 C179.89651352 265.9924794 179.14133942 266.75615326 178.36328125 267.54296875 C177.58365524 268.3339949 176.80402924 269.12502106 176.0007782 269.9400177 C174.35012085 271.60955396 172.69654573 273.27620975 171.0402832 274.94018555 C168.51280227 277.4870993 166.00744821 280.05452666 163.50195312 282.62304688 C161.89455501 284.24350374 160.28587247 285.86268774 158.67578125 287.48046875 C157.9307283 288.2502153 157.18567535 289.01996185 156.41804504 289.81303406 C153.16950149 293.03425986 150.91252976 295.06665908 146.53198242 296.55200195 C138.51535206 295.9779225 132.85175053 288.25970681 127.51025391 282.89404297 C126.54427666 281.93077897 125.57787515 280.96794026 124.61108398 280.00549316 C121.99940419 277.40289504 119.39404658 274.79405428 116.79008532 272.18373632 C114.06246793 269.45104288 111.32996012 266.7232465 108.59823608 263.99465942 C104.01680344 259.41685927 99.43959106 254.83487119 94.86474609 250.25048828 C89.5708838 244.94571682 84.26981988 239.6482238 78.96500838 234.35440338 C74.40922737 229.80768471 69.85733823 225.25709734 65.30870759 220.70322526 C62.59230818 217.98370368 59.87456557 215.26556148 57.15330887 212.55089951 C54.59937059 210.00271965 52.05033841 207.44973338 49.50508118 204.8928833 C48.12007808 203.50395694 46.73012253 202.11997463 45.34005737 200.7361145 C44.52414124 199.91455872 43.7082251 199.09300293 42.86758423 198.24655151 C42.15269144 197.53090467 41.43779865 196.81525784 40.70124245 196.07792473 C39.1875 194.3125 39.1875 194.3125 39.1875 192.3125 C38.1975 191.9825 37.2075 191.6525 36.1875 191.3125 C34.6171875 189.53515625 34.6171875 189.53515625 33.0625 187.375 C32.54429687 186.66472656 32.02609375 185.95445312 31.4921875 185.22265625 C29.12786902 181.7611241 29.04807435 179.5834805 29.01049805 175.39746094 C28.99124519 173.5347757 28.99124519 173.5347757 28.97160339 171.63446045 C28.96343482 170.27193602 28.95599131 168.90940708 28.94921875 167.546875 C28.94514322 166.86114662 28.9410677 166.17541824 28.93686867 165.46891022 C28.91600517 161.83751222 28.90170625 158.20615201 28.89233398 154.57470703 C28.88128503 150.83093682 28.84690449 147.08776355 28.80716228 143.34420395 C28.7809612 140.45990934 28.77263898 137.57575599 28.76905251 134.69135284 C28.76419336 133.311892 28.75259838 131.93243718 28.73401451 130.55309296 C28.56590838 117.24570457 28.56590838 117.24570457 33.1875 112.3125 C31.67410052 108.07498146 28.99758791 106.51062764 25.1875 104.3125 C19.85199513 102.05443271 14.89465241 101.97081428 9.1953125 101.8984375 C8.24937225 101.87907135 7.30343201 101.8597052 6.3288269 101.8397522 C3.32347478 101.78022951 0.31808379 101.73368054 -2.6875 101.6875 C-4.73178704 101.64929508 -6.77605842 101.61024189 -8.8203125 101.5703125 C-13.8175803 101.47455046 -18.81492342 101.39041886 -23.8125 101.3125 C-23.52866455 102.04919922 -23.2448291 102.78589844 -22.95239258 103.54492188 C-15.53985999 122.80791579 -8.21740815 142.10527766 -0.94320679 161.42089844 C0.01970433 163.97725114 0.98498127 166.53269158 1.95223999 169.08740234 C3.32405209 172.71110408 4.6877781 176.33781887 6.05078125 179.96484375 C6.46893097 181.06654404 6.88708069 182.16824432 7.31790161 183.30332947 C7.69679535 184.31561111 8.07568909 185.32789276 8.46606445 186.37084961 C8.96684258 187.69928139 8.96684258 187.69928139 9.47773743 189.05455017 C10.1875 191.3125 10.1875 191.3125 10.1875 194.3125 C12.8275 193.6525 15.4675 192.9925 18.1875 192.3125 C27.79023994 216.71768888 36.90471552 241.31484226 46.12962341 265.86463928 C49.06707577 273.6810216 52.01011722 281.49521829 54.96609688 289.30461407 C56.98878479 294.64900465 59.00322949 299.99646695 61.01428223 305.34524536 C61.83193768 307.51540859 62.65261227 309.68443691 63.47644043 311.8522644 C64.60831111 314.83211395 65.72927612 317.81584738 66.84765625 320.80078125 C67.3394915 322.08358475 67.3394915 322.08358475 67.84126282 323.39230347 C69.70238509 328.40115802 71.12786317 332.93848019 71.1875 338.3125 C68.51934519 343.50960952 64.13384952 344.99603334 58.94921875 346.9765625 C58.15022659 347.29531342 57.35123444 347.61406433 56.5280304 347.94247437 C53.98224104 348.95465586 51.42907295 349.94643196 48.875 350.9375 C47.16938193 351.61061259 45.46429734 352.28507865 43.75976562 352.9609375 C41.34806579 353.91671149 38.93579273 354.87050713 36.51921082 355.81387329 C33.09744046 357.14971947 29.70330159 358.51312144 26.34301758 359.99755859 C22.90274339 361.43116144 20.86725202 361.87246226 17.1875 361.3125 C12.61919418 358.38236009 11.1215384 355.58103619 9.3125 350.53125 C8.94394646 349.52311501 8.94394646 349.52311501 8.56794739 348.49461365 C7.75959019 346.27230771 6.97366363 344.04274368 6.1875 341.8125 C5.61559188 340.22678371 5.0422406 338.64158725 4.4675293 337.05688477 C3.27616866 333.76377888 2.0939377 330.46761203 0.91943359 327.16845703 C-0.67600592 322.68807977 -2.29278065 318.21575251 -3.91796875 313.74609375 C-6.30776732 307.16672123 -8.68237245 300.58200538 -11.04992676 293.99459839 C-13.09423864 288.30724167 -15.14284979 282.62144824 -17.19361877 276.93641663 C-18.79617387 272.49381524 -20.397856 268.05089938 -21.99942017 263.60794067 C-22.77780339 261.44889743 -23.55642023 259.28993838 -24.33529663 257.131073 C-26.14713292 252.10816686 -27.95397331 247.08361853 -29.74902344 242.0546875 C-31.12860366 238.1940259 -32.54144826 234.3477909 -33.97753906 230.5078125 C-34.64399913 228.69275199 -35.31034574 226.87764982 -35.9765625 225.0625 C-36.45275528 223.82040771 -36.45275528 223.82040771 -36.93856812 222.55322266 C-37.21616974 221.78800293 -37.49377136 221.0227832 -37.77978516 220.234375 C-38.02862457 219.57018555 -38.27746399 218.90599609 -38.53384399 218.22167969 C-38.91226138 215.62899635 -38.28183658 214.44528894 -36.8125 212.3125 C-35.8225 211.9825 -34.8325 211.6525 -33.8125 211.3125 C-34.39092337 206.1113204 -35.62416584 201.48626754 -37.4453125 196.57421875 C-37.71403671 195.83213669 -37.98276093 195.09005463 -38.2596283 194.32548523 C-39.14611198 191.88137512 -40.04183602 189.44075915 -40.9375 187 C-41.56251559 185.28168466 -42.1867693 183.56309202 -42.81030273 181.84423828 C-43.79025433 179.14309502 -44.77070149 176.44214312 -45.75358582 173.74206543 C-48.16237362 167.12231855 -50.54088506 160.49223721 -52.90234375 153.85546875 C-53.23617065 152.91759018 -53.56999756 151.97971161 -53.91394043 151.01341248 C-55.21778653 147.34899712 -56.52100239 143.68435956 -57.8225708 140.01913452 C-59.80316666 134.44439231 -61.79826116 128.87517465 -63.8125 123.3125 C-64.0548941 122.63872314 -64.29728821 121.96494629 -64.54702759 121.27075195 C-65.20703859 119.44537442 -65.88043559 117.62485288 -66.5546875 115.8046875 C-67.10358643 114.31364502 -67.10358643 114.31364502 -67.66357422 112.79248047 C-69.66063556 108.48178156 -72.32164764 106.39186936 -76.6875 104.5 C-77.38875 104.438125 -78.09 104.37625 -78.8125 104.3125 C-80.40578125 104.14427734 -80.40578125 104.14427734 -82.03125 103.97265625 C-88.20521456 103.99289647 -93.81440101 106.56542047 -99.4765625 108.79248047 C-101.43433867 109.56125861 -103.39963566 110.30742937 -105.3671875 111.05078125 C-116.74451808 115.0386828 -116.74451808 115.0386828 -124.5 123.6875 C-124.91121094 124.47253906 -125.32242188 125.25757813 -125.74609375 126.06640625 C-126.91927826 128.45784169 -126.91927826 128.45784169 -128.0625 131.625 C-130.76124291 135.76949804 -134.27073025 136.65760414 -138.8125 138.3125 C-139.98425781 138.76367188 -141.15601563 139.21484375 -142.36328125 139.6796875 C-145.76694142 140.98624691 -149.1843034 142.2519861 -152.60839844 143.50390625 C-154.10810632 144.05408708 -155.60610012 144.60895787 -157.10253906 145.16796875 C-159.37739471 146.01755573 -161.65673892 146.85391475 -163.9375 147.6875 C-164.63552734 147.95030762 -165.33355469 148.21311523 -166.05273438 148.48388672 C-170.09233433 149.93958961 -173.52146943 150.87219964 -177.8125 150.3125 C-180.44188714 148.20151943 -181.46235326 146.14447088 -182.55493164 142.99414062 C-183.01717384 141.68239365 -183.01717384 141.68239365 -183.48875427 140.34414673 C-183.81344193 139.39526581 -184.13812958 138.44638489 -184.47265625 137.46875 C-184.81921768 136.47950531 -185.16577911 135.49026062 -185.52284241 134.47103882 C-186.6482285 131.25425379 -187.76184487 128.03353575 -188.875 124.8125 C-190.40117618 120.42836709 -191.93252461 116.04605162 -193.46484375 111.6640625 C-193.84000122 110.58883331 -194.21515869 109.51360413 -194.60168457 108.40579224 C-196.72118825 102.3516038 -198.8955601 96.32547992 -201.19140625 90.3359375 C-201.55526176 89.38252472 -201.55526176 89.38252472 -201.9264679 88.40985107 C-203.00148945 85.60075376 -204.09238729 82.79940324 -205.20727539 80.00585938 C-208.67226212 71.01315858 -208.67226212 71.01315858 -206.8125 66.3125 C-203.93819119 63.33745607 -200.42667232 62.30752808 -196.5625 61 C-194.71011719 60.35998047 -194.71011719 60.35998047 -192.8203125 59.70703125 C-192.16836914 59.48225098 -191.51642578 59.2574707 -190.84472656 59.02587891 C-187.35528378 57.80096879 -183.89717869 56.49366353 -180.4375 55.1875 C-179.79651367 54.94604248 -179.15552734 54.70458496 -178.49511719 54.45581055 C-177.55780762 54.10256714 -177.55780762 54.10256714 -176.6015625 53.7421875 C-175.67730469 53.39498657 -175.67730469 53.39498657 -174.734375 53.04077148 C-173.37748019 52.52659247 -172.02356985 52.00450412 -170.671875 51.47680664 C-166.49765584 49.86321482 -163.31022431 48.80139496 -158.8125 49.3125 C-158.18290878 49.64269135 -157.55331757 49.97288269 -156.90464783 50.31307983 C-152.1299892 52.59393688 -146.53820345 51.74506049 -141.64819336 50.12255859 C-140.22703722 49.58393271 -138.81184684 49.02935957 -137.40234375 48.4609375 C-136.63177139 48.16442291 -135.86119904 47.86790833 -135.067276 47.56240845 C-132.62246006 46.6181183 -130.18631055 45.65349362 -127.75 44.6875 C-126.14442605 44.06239827 -124.53830883 43.43869006 -122.93164062 42.81640625 C-119.74542166 41.58086475 -116.56216392 40.33809027 -113.38061523 39.09057617 C-109.21590721 37.46261201 -105.03450026 35.88371083 -100.84375 34.32421875 C-92.51751593 31.2215263 -84.23921549 27.99945236 -75.96429443 24.76275635 C-73.31014301 23.72463235 -70.65535238 22.68815539 -68.00048828 21.65185547 C-59.34286429 18.27036193 -50.69115064 14.87457266 -42.05078125 11.44921875 C-41.29126663 11.14847946 -40.53175201 10.84774017 -39.7492218 10.53788757 C-36.19123106 9.12897981 -32.63452743 7.71701491 -29.08032227 6.29858398 C-27.81141454 5.79527433 -26.54245592 5.29209297 -25.2734375 4.7890625 C-23.64607666 4.1405835 -23.64607666 4.1405835 -21.98583984 3.47900391 C-14.40802119 0.69343555 -7.99565595 -0.02475435 0 0 Z " fill="#FDFDFD" transform="translate(241.8125,80.6875)"/>
<path d="M0 0 C0.66 0 1.32 0 2 0 C3.76103777 4.72774769 5.52082139 9.45595979 7.27954102 14.18457031 C7.875567 15.78658047 8.47191082 17.38847242 9.06860352 18.99023438 C9.93593666 21.31868467 10.80204975 23.64758599 11.66796875 25.9765625 C11.92652145 26.66988678 12.18507416 27.36321106 12.45146179 28.07754517 C12.98031143 29.50128837 13.49897724 30.92885242 14.00781727 32.359869 C14.69422957 34.1863656 15.44516565 35.98942179 16.24576569 37.76882935 C20.80803134 48.67136885 20.67510416 59.01225975 20.56762695 70.69287109 C20.56609266 72.88727079 20.5667672 75.08167296 20.56945324 77.27607155 C20.57057518 83.11604959 20.54174216 88.95550819 20.50640106 94.79536438 C20.47778005 100.28912875 20.47657758 105.78277119 20.47302246 111.27661133 C20.44685779 127.30947549 20.37705146 143.34224444 20.3125 159.375 C20.209375 195.22125 20.10625 231.0675 20 268 C152.99 268 285.98 268 423 268 C423 225.76 423 183.52 423 140 C431.08888889 130.75555556 431.08888889 130.75555556 434.1875 127.625 C434.82042969 126.97789062 435.45335937 126.33078125 436.10546875 125.6640625 C437.99371369 124.00552158 439.74542222 123.07360847 442 122 C442.02332692 143.49605516 442.04097815 164.99210825 442.05181217 186.48817348 C442.05697557 196.46843831 442.0640191 206.44869529 442.07543945 216.42895508 C442.08538496 225.1244614 442.09185311 233.81996205 442.09408849 242.5154739 C442.09539583 247.12263731 442.09848312 251.72978446 442.10573006 256.33694267 C442.11248817 260.66818592 442.11461739 264.99940612 442.11310768 269.33065414 C442.1133841 270.92505455 442.11539047 272.51945568 442.11920547 274.11385155 C442.12413947 276.28116571 442.1229994 278.44839143 442.12025452 280.6157074 C442.12163721 282.43947482 442.12163721 282.43947482 442.12304783 284.30008602 C442 287 442 287 441 288 C438.6597312 288.09963206 436.34894027 288.13363673 434.00810242 288.12584114 C433.26436375 288.12729458 432.52062508 288.12874802 431.75434887 288.13024551 C429.23033703 288.13393192 426.70638458 288.13040695 424.18237305 288.12698364 C422.3673102 288.12813442 420.5522476 288.12972165 418.73718548 288.13171089 C413.7246767 288.13591018 408.71218681 288.13381083 403.69967794 288.13072467 C398.3035783 288.12847321 392.90748204 288.13194891 387.51138306 288.13470459 C376.93060911 288.13916402 366.34984223 288.13818505 355.769068 288.13529195 C347.1740375 288.13303859 338.57900899 288.1327251 329.98397827 288.13381577 C328.76324354 288.133969 327.54250881 288.13412223 326.28478211 288.13428011 C323.80530937 288.13459982 321.32583664 288.13492403 318.8463639 288.1352527 C295.56631878 288.138108 272.28627758 288.13481969 249.0062331 288.12945233 C229.00708248 288.12498425 209.00793968 288.12576017 189.00878906 288.13037109 C165.81516455 288.13571598 142.62154348 288.1378333 119.42791843 288.13475883 C116.9572862 288.13444026 114.48665396 288.13412589 112.01602173 288.13381577 C110.1923625 288.13358435 110.1923625 288.13358435 108.33186167 288.13334826 C99.74169723 288.13248285 91.15153496 288.13394651 82.56137085 288.13629532 C72.10067112 288.13909257 61.6399789 288.13835665 51.17928004 288.13301457 C45.83649199 288.13037654 40.49371648 288.12937421 35.1509285 288.13266373 C30.26825804 288.13562461 25.38561186 288.13403739 20.50294363 288.12868617 C18.72840513 288.12756109 16.9538646 288.12815516 15.17932737 288.13056196 C12.78348749 288.13356433 10.38773286 288.13052317 7.99189758 288.12584114 C7.28889845 288.12818231 6.58589932 288.13052347 5.86159718 288.13293558 C1.11415034 288.11415034 1.11415034 288.11415034 0 287 C-0.09689341 285.4674343 -0.12371695 283.93039225 -0.12304783 282.39476681 C-0.12503888 281.39304123 -0.12702993 280.39131565 -0.12908131 279.35923475 C-0.12616847 278.24544543 -0.12325563 277.13165611 -0.12025452 275.9841156 C-0.12110894 274.81128165 -0.12196337 273.6384477 -0.12284368 272.43007332 C-0.12421185 269.16006641 -0.12106443 265.8900986 -0.11606562 262.62009633 C-0.11176439 259.09929026 -0.11320731 255.57848617 -0.1139679 252.05767822 C-0.11449334 245.9527944 -0.11134442 239.84792123 -0.10573006 233.74304008 C-0.09761781 224.91630668 -0.09500012 216.08957844 -0.09374207 207.26284171 C-0.09155111 192.94353543 -0.08488985 178.62423483 -0.07543945 164.30493164 C-0.06626646 150.39152047 -0.05918507 136.47811085 -0.05493164 122.56469727 C-0.05466892 121.70769226 -0.05440619 120.85068725 -0.05413551 119.96771239 C-0.05283051 115.66855459 -0.05156679 111.36939677 -0.05032361 107.07023895 C-0.03994964 71.38015525 -0.02233015 35.69007815 0 0 Z " fill="#F7F7F7" transform="translate(35,184)"/>
<path d="M0 0 C0.69876777 0.00496818 1.39753555 0.00993636 2.1174781 0.01505509 C2.86068224 0.01244781 3.60388638 0.00984052 4.36961186 0.00715423 C6.88584782 0.000806 9.40183876 0.00884695 11.91806766 0.0167059 C13.72986939 0.0151192 15.54167052 0.01265699 17.35347 0.00938949 C22.35234014 0.0029478 27.35112986 0.00906581 32.34999475 0.01715377 C37.73312648 0.02370935 43.11624889 0.01878699 48.49938175 0.01527157 C59.05262245 0.01021984 69.60583192 0.01588331 80.15906874 0.02512188 C92.4353886 0.03548429 104.71170162 0.03543626 116.98802503 0.0349493 C138.88373413 0.03444821 160.77942865 0.043623 182.67513248 0.05813351 C203.9472706 0.07222359 225.21939588 0.07930425 246.49153873 0.07864133 C247.80173894 0.07860137 249.11193915 0.07856141 250.4618424 0.07852025 C252.42366323 0.07845971 252.42366323 0.07845971 254.42511681 0.07839796 C278.6061266 0.07770897 302.78713091 0.08359305 326.96813892 0.09255118 C335.53627292 0.09557377 344.10440592 0.09663147 352.6725404 0.09708348 C363.10576913 0.09776404 373.53898862 0.10220662 383.97221342 0.11141629 C389.30083059 0.11604865 394.62943591 0.11907451 399.95805523 0.11782208 C404.82773458 0.11673297 409.69738764 0.12020881 414.56706151 0.12747061 C416.33685883 0.12929494 418.10665885 0.12940366 419.8764563 0.12770332 C422.26589049 0.1256604 424.65523668 0.12966249 427.04466316 0.13530961 C427.7457721 0.13325429 428.44688104 0.13119897 429.16923571 0.12908137 C433.90399517 0.14978916 433.90399517 0.14978916 435.01815006 1.26394406 C435.11618668 4.33583829 435.14805818 7.38526395 435.13840458 10.45756283 C435.13968622 11.92279799 435.13968622 11.92279799 435.14099374 13.41763386 C435.14265151 16.71741495 435.13712234 20.01714611 435.13167545 23.31692258 C435.13139362 25.67171993 435.13155124 28.02651737 435.13211796 30.38131467 C435.13240608 36.79634775 435.12650697 43.21136232 435.119544 49.62639108 C435.11346955 55.64457552 435.11292218 61.66276215 435.11189213 67.68094911 C435.10970129 79.60436956 435.10304036 91.52778318 435.09358951 103.45119992 C435.08441621 115.03648603 435.07733498 126.62177029 435.0730817 138.20705929 C435.07268762 139.27750312 435.07268762 139.27750312 435.07228557 140.36957208 C435.07098057 143.94949446 435.06971685 147.52941686 435.06847367 151.10933927 C435.05810008 180.82754539 435.04040679 210.5457444 435.01815006 240.26394406 C433.90393172 239.31422163 432.79047239 238.3636087 431.67732975 237.4126257 C431.05718998 236.88334973 430.43705021 236.35407376 429.79811832 235.80875912 C427.54087979 233.84972639 425.3907685 231.80524496 423.26815006 229.70144406 C422.53080631 228.97828 421.79346256 228.25511593 421.03377506 227.51003781 C374.65840779 175.83206071 416.01815006 88.69943935 416.01815006 19.26394406 C283.02815006 19.26394406 150.03815006 19.26394406 13.01815006 19.26394406 C13.01815006 42.03394406 13.01815006 64.80394406 13.01815006 88.26394406 C8.72815006 89.91394406 4.43815006 91.56394406 0.01815006 93.26394406 C-0.47684994 93.75894406 -0.47684994 93.75894406 -0.98184994 94.26394406 C-3.48184994 94.38894406 -3.48184994 94.38894406 -5.98184994 94.26394406 C-7.82182689 92.42396711 -7.11481623 89.8361841 -7.1284869 87.38676205 C-7.12803372 86.54258221 -7.12758053 85.69840237 -7.12711361 84.82864133 C-7.13047222 83.94413296 -7.13383083 83.0596246 -7.13729122 82.14831296 C-7.14683137 79.208978 -7.14874586 76.26969981 -7.14981869 73.33035031 C-7.15302911 71.29632805 -7.15639301 69.26230603 -7.15990475 67.22828427 C-7.16590367 62.95850852 -7.16774386 58.68875303 -7.16715267 54.41897336 C-7.167051 48.93632043 -7.18070521 43.45379687 -7.19792488 37.97117463 C-7.20902021 33.76855118 -7.21107264 29.56595925 -7.21054295 25.36332265 C-7.21172672 23.34143319 -7.21617057 21.31954301 -7.22387531 19.29766789 C-7.23362572 16.47456576 -7.23081688 13.65174761 -7.22476986 10.82864133 C-7.23038937 9.98648572 -7.23600887 9.14433011 -7.24179867 8.27665463 C-7.2070211 1.91732815 -6.58974795 0.04941789 0 0 Z " fill="#F9F9F9" transform="translate(41.98184993863106,40.73605594038963)"/>
<path d="M0 0 C3.71368887 1.23789629 4.77354181 2.85224877 7 6 C7 6.66 7 7.32 7 8 C7.85980469 7.67902344 8.71960938 7.35804688 9.60546875 7.02734375 C15.8411437 5.14013718 22.70693548 4.70177264 28.84375 7.12109375 C30.98771683 8.31859421 33.01140241 9.56122138 35 11 C34.37530495 12.35350594 33.69429379 13.6808418 33 15 C32.46890625 16.07507813 31.9378125 17.15015625 31.390625 18.2578125 C29 21 29 21 25.109375 21.3671875 C23.65302333 21.23479189 22.19934979 21.06961234 20.75 20.875 C20.00492187 20.80023438 19.25984375 20.72546875 18.4921875 20.6484375 C16.65836295 20.46035293 14.82854767 20.233884 13 20 C13 20.66 13 21.32 13 22 C13.66 22 14.32 22 15 22 C16.56246919 23.88563644 18.00977577 25.76640899 19.4375 27.75 C19.83259766 28.28882813 20.22769531 28.82765625 20.63476562 29.3828125 C21.7605968 30.91888832 22.88043513 32.45935102 24 34 C24.99720476 35.33542519 25.99587206 36.66977263 27 38 C27.58265625 37.7834375 28.1653125 37.566875 28.765625 37.34375 C36.69043442 34.65230529 45.36014499 33.03911049 53.3125 36.5 C58.74436099 39.67520058 63.74149941 45.0874159 66 51 C67.25637953 62.73107866 64.7200405 70.63994359 58 80 C58.37253906 80.45890625 58.74507813 80.9178125 59.12890625 81.390625 C59.60199219 82.00421875 60.07507813 82.6178125 60.5625 83.25 C61.03816406 83.85328125 61.51382813 84.4565625 62.00390625 85.078125 C63 87 63 87 62.80078125 89.08984375 C61.56817041 92.03007156 59.6349529 93.30610171 57 95 C53.65001479 93.88333826 53.20659778 93.25305075 51.3125 90.4375 C50.87550781 89.79683594 50.43851562 89.15617187 49.98828125 88.49609375 C49.66214844 88.00238281 49.33601563 87.50867188 49 87 C48.34515625 87.28875 47.6903125 87.5775 47.015625 87.875 C39.16133654 91.0699648 31.52037414 92.81406062 23.2421875 90.09375 C21.09489984 89.1513667 19.04010614 88.15399943 17 87 C18.41292095 82.1725201 20.42974154 78.2837641 23 74 C28.28 74 33.56 74 39 74 C35.40878958 67.12985833 30.70778149 61.12615155 26 55 C24.56206608 55.31049726 23.1246682 55.6234776 21.6875 55.9375 C20.88699219 56.11152344 20.08648437 56.28554688 19.26171875 56.46484375 C16.854599 56.99886159 16.854599 56.99886159 14 58 C6.93731569 58.77766019 1.00398318 57.92612285 -5 54 C-9.50354217 49.930418 -12.59262228 45.53942458 -13.30078125 39.38671875 C-13.34116758 30.08440048 -11.55358912 24.26210668 -5.40234375 17.25 C-4 16 -4 16 -2 16 C-3.98 13.03 -5.96 10.06 -8 7 C-2.04296875 1.43359375 -2.04296875 1.43359375 0 0 Z " fill="#040404" transform="translate(344,226)"/>
<path d="M0 0 C5.74624746 -0.4596998 8.55130726 0.32499296 13 4 C17.15767618 8.39301634 19.41960656 11.54349941 19.3515625 17.76953125 C18.5943993 22.57331108 15.6964 26.48421879 12.12890625 29.671875 C8.34777386 32.03074658 4.38486204 32.21620275 0 32 C-4.03800145 30.77867631 -6.5898947 28.46406652 -9.375 25.3125 C-11.39704926 21.19063036 -11.79815403 17.54153423 -12 13 C-9.45716593 14.18844034 -7.78684744 15.19586992 -5.6875 17.125 C-2.21052218 19.55079848 -0.15678162 19.53884206 4 19 C6.06402685 18.01951062 6.06402685 18.01951062 7 16 C7.83752425 13.21717469 7.83752425 13.21717469 7 10 C5.31235456 7.74560796 3.49844575 5.74840874 1.53125 3.734375 C0 2 0 2 0 0 Z " fill="#0C0C0C" transform="translate(304,196)"/>
<path d="M0 0 C6.09067026 -0.42004622 9.10816881 -0.0566405 14 4 C15.59220976 7.18441952 15.3976617 10.5337155 15 14 C13.5 17 13.5 17 12 19 C7.59935696 17.45771856 5.40404102 13.98573023 2.75 10.375 C2.29109375 9.76398438 1.8321875 9.15296875 1.359375 8.5234375 C0.23248748 7.0209208 -0.88472437 5.51115591 -2 4 C-1.34 2.68 -0.68 1.36 0 0 Z " fill="#F7F7F7" transform="translate(382,275)"/>
<path d="M0 0 C3.88083745 1.29361248 5.31504237 3.69321965 7.625 6.875 C8.03234375 7.41769531 8.4396875 7.96039063 8.859375 8.51953125 C10.69328344 11.00320196 12.01704835 13.05114504 13 16 C9.11160262 17.29613246 5.03720696 17.69551882 1 17 C-2 14.9375 -2 14.9375 -4 12 C-4.7066341 7.6031656 -4.51930235 5.76272533 -2 2.0625 C-1.34 1.381875 -0.68 0.70125 0 0 Z " fill="#F5F5F5" transform="translate(348,252)"/>
</svg>
