<?xml version="1.0" standalone="no"?>
<!DOCTYPE svg PUBLIC "-//W3C//DTD SVG 20010904//EN"
 "http://www.w3.org/TR/2001/REC-SVG-20010904/DTD/svg10.dtd">
<svg version="1.0" xmlns="http://www.w3.org/2000/svg"
 width="300.000000pt" height="300.000000pt" viewBox="0 0 300.000000 300.000000"
 preserveAspectRatio="xMidYMid meet">
<metadata>
Created by potrace 1.10, written by Peter Selinger 2001-2011
</metadata>
<g transform="translate(0.000000,300.000000) scale(0.100000,-0.100000)"
fill="#ffffff" stroke="none">
<path d="M0 1500 l0 -1500 1500 0 1500 0 0 1500 0 1500 -1500 0 -1500 0 0
-1500z m2798 558 c1 -401 -1 -698 -6 -698 -16 0 -102 99 -102 117 -1 10 -2
241 -5 513 -2 272 -4 532 -4 578 l-1 82 -1180 0 -1180 0 0 -204 0 -204 -47
-16 c-26 -9 -50 -16 -55 -16 -4 0 -8 124 -8 275 l0 275 1293 -2 1292 -3 3
-697z m-1213 428 c55 -27 93 -58 173 -139 56 -57 102 -109 102 -115 0 -18 -32
-44 -49 -38 -9 2 -56 22 -106 43 -79 34 -99 38 -170 38 -90 -1 -143 -21 -188
-74 -31 -38 -60 -111 -55 -142 3 -24 5 -24 138 -30 140 -5 172 -13 228 -56 25
-19 37 -22 45 -14 7 7 76 11 207 11 l195 1 327 -333 c202 -206 328 -340 328
-353 0 -12 -88 -107 -239 -259 -238 -238 -239 -239 -268 -227 -24 10 -319 301
-585 578 l-78 81 0 189 c0 150 3 193 15 210 13 18 12 22 -3 36 -39 35 -89 47
-201 47 -60 0 -112 -4 -116 -9 -3 -6 39 -128 93 -273 90 -240 101 -263 122
-263 22 0 36 -33 176 -405 84 -223 153 -417 154 -432 0 -20 -8 -31 -27 -42
-51 -26 -257 -106 -274 -106 -28 0 -45 31 -107 205 -33 94 -99 278 -147 409
-84 235 -86 240 -67 255 19 16 17 23 -84 306 -110 307 -126 335 -183 335 -36
0 -207 -63 -231 -85 -10 -9 -28 -36 -38 -58 -20 -41 -23 -43 -153 -90 -109
-39 -135 -46 -145 -35 -13 12 -174 446 -174 467 0 17 39 37 153 80 102 38 111
40 152 29 44 -12 48 -11 437 139 216 83 402 154 413 157 11 3 51 3 90 1 54 -3
85 -12 140 -39z m-1316 -714 l51 -142 0 -640 0 -640 1183 2 1182 3 1 379 2
378 48 44 c27 24 52 44 57 44 4 0 7 -216 7 -480 l0 -480 -1295 0 -1295 0 0
842 c0 463 2 839 4 837 2 -2 27 -68 55 -147z"/>
<path d="M1804 1819 c30 -35 32 -51 10 -73 -21 -21 -36 -20 -67 4 -34 27 -40
25 -32 -7 26 -105 175 -93 175 14 0 43 -46 93 -85 93 l-27 0 26 -31z"/>
<path d="M1992 1654 c-22 -15 -22 -17 -7 -41 16 -23 16 -26 -3 -46 -64 -71
-54 -175 20 -213 29 -15 77 -16 150 -2 10 2 31 -17 57 -51 46 -61 42 -75 -20
-65 -33 5 -38 2 -57 -30 -20 -33 -20 -36 -4 -45 36 -19 88 -22 131 -7 42 14
44 14 65 -10 20 -23 22 -23 44 -6 l23 18 -21 26 -20 27 25 37 c70 103 -2 236
-119 221 -23 -3 -50 -9 -62 -12 -17 -5 -28 3 -58 43 -20 27 -36 53 -36 57 0 4
18 5 40 2 35 -4 43 -2 60 21 31 39 8 57 -75 57 -46 1 -69 5 -83 18 -23 21 -22
21 -50 1z m89 -175 c26 -33 29 -43 18 -50 -49 -31 -95 17 -73 75 9 24 19 20
55 -25z m229 -109 c11 -11 20 -27 20 -36 0 -20 -18 -54 -29 -54 -13 0 -73 89
-66 100 10 17 54 11 75 -10z"/>
</g>
</svg>
